<?xml version="1.0" encoding="iso-8859-1"?>
<!-- Generator: Adobe Illustrator 18.0.0, SVG Export Plug-In . SVG Version: 6.00 Build 0)  -->
<!DOCTYPE svg PUBLIC "-//W3C//DTD SVG 1.1//EN" "http://www.w3.org/Graphics/SVG/1.1/DTD/svg11.dtd">
<svg xmlns="http://www.w3.org/2000/svg" xmlns:xlink="http://www.w3.org/1999/xlink" version="1.1" id="Capa_1" x="0px" y="0px" viewBox="0 0 490.844 490.844" style="enable-background:new 0 0 490.844 490.844;" xml:space="preserve" width="512px" height="512px">
<g>
	<path d="M480.422,61.076h-225V0h-20v61.076h-225c-5.522,0-10,4.477-10,10v203.475c0,5.523,4.478,10,10,10h470   c5.522,0,10-4.477,10-10V71.076C490.422,65.553,485.944,61.076,480.422,61.076z M470.422,264.551h-450V81.074h450V264.551z" fill="#FFFFFF"/>
	<path d="M57.661,127.691H77.67c5.522,0,10-4.477,10-10c0-5.521-4.478-10-10-10H57.661c-5.522,0-10,4.479-10,10   C47.661,123.215,52.139,127.691,57.661,127.691z" fill="#FFFFFF"/>
	<path d="M116.913,127.691h20.009c5.522,0,10-4.477,10-10c0-5.521-4.478-10-10-10h-20.009c-5.522,0-10,4.479-10,10   C106.913,123.215,111.391,127.691,116.913,127.691z" fill="#FFFFFF"/>
	<path d="M176.165,127.691h20.009c5.523,0,10-4.477,10-10c0-5.521-4.477-10-10-10h-20.009c-5.522,0-10,4.479-10,10   C166.165,123.215,170.643,127.691,176.165,127.691z" fill="#FFFFFF"/>
	<path d="M235.417,127.691h20.009c5.522,0,10-4.477,10-10c0-5.521-4.478-10-10-10h-20.009c-5.523,0-10,4.479-10,10   C225.417,123.215,229.895,127.691,235.417,127.691z" fill="#FFFFFF"/>
	<path d="M294.669,127.691h20.009c5.522,0,10-4.477,10-10c0-5.521-4.478-10-10-10h-20.009c-5.522,0-10,4.479-10,10   C284.669,123.215,289.147,127.691,294.669,127.691z" fill="#FFFFFF"/>
	<path d="M353.922,127.691h20.009c5.522,0,10-4.477,10-10c0-5.521-4.478-10-10-10h-20.009c-5.522,0-10,4.479-10,10   C343.922,123.215,348.399,127.691,353.922,127.691z" fill="#FFFFFF"/>
	<path d="M413.174,127.691h20.009c5.523,0,10-4.477,10-10c0-5.521-4.477-10-10-10h-20.009c-5.522,0-10,4.479-10,10   C403.174,123.215,407.651,127.691,413.174,127.691z" fill="#FFFFFF"/>
	<path d="M57.661,182.813H77.67c5.522,0,10-4.477,10-10c0-5.523-4.478-10-10-10H57.661c-5.522,0-10,4.477-10,10   C47.661,178.336,52.139,182.813,57.661,182.813z" fill="#FFFFFF"/>
	<path d="M116.913,182.813h20.009c5.522,0,10-4.477,10-10c0-5.523-4.478-10-10-10h-20.009c-5.522,0-10,4.477-10,10   C106.913,178.336,111.391,182.813,116.913,182.813z" fill="#FFFFFF"/>
	<path d="M176.165,182.813h20.009c5.523,0,10-4.477,10-10c0-5.523-4.477-10-10-10h-20.009c-5.522,0-10,4.477-10,10   C166.165,178.336,170.643,182.813,176.165,182.813z" fill="#FFFFFF"/>
	<path d="M235.417,182.813h20.009c5.522,0,10-4.477,10-10c0-5.523-4.478-10-10-10h-20.009c-5.523,0-10,4.477-10,10   C225.417,178.336,229.895,182.813,235.417,182.813z" fill="#FFFFFF"/>
	<path d="M294.669,182.813h20.009c5.522,0,10-4.477,10-10c0-5.523-4.478-10-10-10h-20.009c-5.522,0-10,4.477-10,10   C284.669,178.336,289.147,182.813,294.669,182.813z" fill="#FFFFFF"/>
	<path d="M353.922,182.813h20.009c5.522,0,10-4.477,10-10c0-5.523-4.478-10-10-10h-20.009c-5.522,0-10,4.477-10,10   C343.922,178.336,348.399,182.813,353.922,182.813z" fill="#FFFFFF"/>
	<path d="M413.174,182.813h20.009c5.523,0,10-4.477,10-10c0-5.523-4.477-10-10-10h-20.009c-5.522,0-10,4.477-10,10   C403.174,178.336,407.651,182.813,413.174,182.813z" fill="#FFFFFF"/>
	<path d="M57.661,237.934h79.261c5.522,0,10-4.476,10-10c0-5.521-4.478-10-10-10H57.661c-5.522,0-10,4.479-10,10   C47.661,233.457,52.139,237.934,57.661,237.934z" fill="#FFFFFF"/>
	<path d="M176.165,237.934h138.513c5.522,0,10-4.476,10-10c0-5.521-4.478-10-10-10H176.165c-5.522,0-10,4.479-10,10   C166.165,233.457,170.643,237.934,176.165,237.934z" fill="#FFFFFF"/>
	<path d="M353.922,237.934h79.261c5.523,0,10-4.476,10-10c0-5.521-4.477-10-10-10h-79.261c-5.522,0-10,4.479-10,10   C343.922,233.457,348.399,237.934,353.922,237.934z" fill="#FFFFFF"/>
	<path d="M468.371,309.738h-88.275c-12.159,0-22.052,9.869-22.052,21.998v41.744c-0.676-0.061-1.359-0.09-2.051-0.09h-14.085   c-12.159,0-22.051,9.483-22.051,21.137v75.18c0,11.654,9.892,21.137,22.051,21.137h126.463c12.159,0,22.051-9.869,22.051-22   V331.736C490.422,319.607,480.53,309.738,468.371,309.738z M470.422,468.844c0,1.103-0.92,2-2.051,2H341.908   c-1.354,0-2.051-0.797-2.051-1.137v-75.18c0-0.34,0.697-1.137,2.051-1.137h14.085c1.252,0,2.051,0.746,2.051,1.137v23.771   c0,5.523,4.478,10,10,10c5.522,0,10-4.477,10-10v-86.563c0-1.102,0.921-1.998,2.052-1.998h14.721v34.488c0,5.523,4.478,10,10,10   s10-4.477,10-10v-34.488h18.832v34.488c0,5.523,4.478,10,10,10c5.522,0,10-4.477,10-10v-34.488h14.723   c1.131,0,2.051,0.896,2.051,1.998V468.844z" fill="#FFFFFF"/>
	<path d="M148.936,373.391h-14.085c-0.691,0-1.376,0.029-2.052,0.09v-41.744c0-12.129-9.892-21.998-22.051-21.998H22.473   c-12.159,0-22.051,9.869-22.051,21.998v137.108c0,12.131,9.892,22,22.051,22h126.463c12.159,0,22.051-9.483,22.051-21.137v-75.18   C170.986,382.873,161.095,373.391,148.936,373.391z M112.799,418.299c0,5.523,4.478,10,10,10c5.523,0,10-4.477,10-10v-23.771   c0-0.391,0.799-1.137,2.052-1.137h14.085c1.252,0,2.051,0.746,2.051,1.137v75.18c0,0.389-0.799,1.137-2.051,1.137H22.473   c-1.131,0-2.051-0.897-2.051-2V331.736c0-1.102,0.92-1.998,2.051-1.998h14.722v34.488c0,5.523,4.478,10,10,10   c5.522,0,10-4.477,10-10v-34.488h18.831v34.488c0,5.523,4.478,10,10,10c5.522,0,10-4.477,10-10v-34.488h14.723   c1.131,0,2.051,0.896,2.051,1.998V418.299z" fill="#FFFFFF"/>
</g>
<g>
</g>
<g>
</g>
<g>
</g>
<g>
</g>
<g>
</g>
<g>
</g>
<g>
</g>
<g>
</g>
<g>
</g>
<g>
</g>
<g>
</g>
<g>
</g>
<g>
</g>
<g>
</g>
<g>
</g>
</svg>
